<?xml version="1.0" encoding="UTF-8"?>
<!DOCTYPE svg PUBLIC "-//W3C//DTD SVG 1.1//EN" "http://www.w3.org/Graphics/SVG/1.1/DTD/svg11.dtd">
<svg xmlns="http://www.w3.org/2000/svg" version="1.1" width="468px" height="461px" style="shape-rendering:geometricPrecision; text-rendering:geometricPrecision; image-rendering:optimizeQuality; fill-rule:evenodd; clip-rule:evenodd" xmlns:xlink="http://www.w3.org/1999/xlink">
<g><path style="opacity:1" fill="#000000" d="M -0.5,-0.5 C 155.5,-0.5 311.5,-0.5 467.5,-0.5C 467.5,153.167 467.5,306.833 467.5,460.5C 311.5,460.5 155.5,460.5 -0.5,460.5C -0.5,306.833 -0.5,153.167 -0.5,-0.5 Z"/></g>
<g><path style="opacity:1" fill="#c1c2c6" d="M 98.5,55.5 C 189.834,55.3333 281.167,55.5 372.5,56C 398.336,62.1688 413.502,78.3355 418,104.5C 418.667,189.833 418.667,275.167 418,360.5C 415.89,381.278 405.723,396.778 387.5,407C 381.357,409.603 375.023,411.603 368.5,413C 280.167,413.667 191.833,413.667 103.5,413C 74.9252,407.425 58.0919,390.258 53,361.5C 52.3333,275.5 52.3333,189.5 53,103.5C 58.1456,77.8576 73.3122,61.8576 98.5,55.5 Z"/></g>
<g><path style="opacity:1" fill="#020101" d="M 103.5,61.5 C 191.501,61.3333 279.501,61.5 367.5,62C 392.976,66.1424 407.809,80.9757 412,106.5C 412.667,190.833 412.667,275.167 412,359.5C 408.912,385.203 394.746,400.703 369.5,406C 279.5,406.667 189.5,406.667 99.5,406C 78.1218,399.956 64.9551,386.122 60,364.5C 59.3333,276.833 59.3333,189.167 60,101.5C 65.802,78.5252 80.302,65.1918 103.5,61.5 Z"/></g>
<g><path style="opacity:1" fill="#c5c6cb" d="M 179.5,107.5 C 196.595,107.029 213.595,107.529 230.5,109C 231.126,109.75 231.626,110.584 232,111.5C 232.667,123.5 232.667,135.5 232,147.5C 229.959,148.423 227.792,148.756 225.5,148.5C 225.5,137.167 225.5,125.833 225.5,114.5C 210.833,114.5 196.167,114.5 181.5,114.5C 181.667,128.504 181.5,142.504 181,156.5C 179.559,157.26 178.059,157.926 176.5,158.5C 175.334,142.51 175.167,126.51 176,110.5C 177.145,109.364 178.312,108.364 179.5,107.5 Z"/></g>
<g><path style="opacity:1" fill="#c5c6cb" d="M 245.5,107.5 C 260.504,107.333 275.504,107.5 290.5,108C 293.455,108.392 295.622,109.892 297,112.5C 297.833,127.844 297.666,143.178 296.5,158.5C 294.833,157.833 293.167,157.167 291.5,156.5C 290.501,142.516 290.167,128.516 290.5,114.5C 276.163,114.333 261.829,114.5 247.5,115C 246.513,126.085 246.179,137.252 246.5,148.5C 244.5,148.5 242.5,148.5 240.5,148.5C 240.333,136.162 240.5,123.829 241,111.5C 242.25,109.807 243.75,108.473 245.5,107.5 Z"/></g>
<g><path style="opacity:1" fill="#bfc0c4" d="M 114.5,108.5 C 131.503,108.333 148.503,108.5 165.5,109C 166,109.5 166.5,110 167,110.5C 167.825,127.741 167.658,144.907 166.5,162C 164.5,163 162.5,164 160.5,165C 144.833,165.667 129.167,165.667 113.5,165C 113,164.5 112.5,164 112,163.5C 110.362,146.591 110.029,129.591 111,112.5C 112.376,111.295 113.542,109.962 114.5,108.5 Z"/></g>
<g><path style="opacity:1" fill="#d71314" d="M 313.5,107.5 C 326.171,107.333 338.838,107.5 351.5,108C 354.571,108.147 357.404,108.98 360,110.5C 361.636,126.741 361.97,143.075 361,159.5C 360.535,160.931 359.701,162.097 358.5,163C 342.926,164.635 327.259,164.968 311.5,164C 308.337,162.52 306.504,160.02 306,156.5C 305.333,142.5 305.333,128.5 306,114.5C 307.15,110.51 309.65,108.177 313.5,107.5 Z"/></g>
<g><path style="opacity:1" fill="#010101" d="M 117.5,115.5 C 131.833,115.5 146.167,115.5 160.5,115.5C 160.833,129.516 160.499,143.516 159.5,157.5C 158.5,158 157.5,158.5 156.5,159C 143.504,159.5 130.504,159.667 117.5,159.5C 117.5,144.833 117.5,130.167 117.5,115.5 Z"/></g>
<g><path style="opacity:1" fill="#d91314" d="M 212.5,158.5 C 227.837,158.333 243.17,158.5 258.5,159C 274.971,160.491 290.638,164.825 305.5,172C 313.874,176.633 317.04,183.466 315,192.5C 310.529,198.493 304.696,202.66 297.5,205C 282.651,210.436 267.318,213.436 251.5,214C 225.294,216.233 199.628,213.567 174.5,206C 166.883,203.368 160.716,198.868 156,192.5C 153.98,184.028 156.813,177.528 164.5,173C 179.761,165.356 195.761,160.523 212.5,158.5 Z"/></g>
<g><path style="opacity:1" fill="#606163" d="M 116.5,173.5 C 128.007,172.176 139.673,172.176 151.5,173.5C 151.376,174.107 151.043,174.44 150.5,174.5C 139.346,173.505 128.012,173.172 116.5,173.5 Z"/></g>
<g><path style="opacity:1" fill="#626364" d="M 355.5,173.5 C 343.655,173.172 331.988,173.505 320.5,174.5C 319.957,174.44 319.624,174.107 319.5,173.5C 331.66,172.175 343.66,172.175 355.5,173.5 Z"/></g>
<g><path style="opacity:1" fill="#c0c1c5" d="M 116.5,173.5 C 128.012,173.172 139.346,173.505 150.5,174.5C 149.847,175.807 149.18,177.14 148.5,178.5C 138.188,179.499 127.855,179.832 117.5,179.5C 117.5,194.167 117.5,208.833 117.5,223.5C 127.167,223.5 136.833,223.5 146.5,223.5C 146.5,225.833 146.5,228.167 146.5,230.5C 135.828,230.667 125.161,230.5 114.5,230C 113.667,229.167 112.833,228.333 112,227.5C 110.364,211.259 110.03,194.925 111,178.5C 112.076,175.921 113.909,174.254 116.5,173.5 Z"/></g>
<g><path style="opacity:1" fill="#c0c1c5" d="M 355.5,173.5 C 358.148,173.738 359.982,175.072 361,177.5C 361.97,194.258 361.637,210.925 360,227.5C 359.097,228.701 357.931,229.535 356.5,230C 345.839,230.5 335.172,230.667 324.5,230.5C 324.5,228.167 324.5,225.833 324.5,223.5C 334.5,223.5 344.5,223.5 354.5,223.5C 354.5,208.833 354.5,194.167 354.5,179.5C 343.813,179.832 333.146,179.499 322.5,178.5C 321.82,177.14 321.153,175.807 320.5,174.5C 331.988,173.505 343.655,173.172 355.5,173.5 Z"/></g>
<g><path style="opacity:1" fill="#d91314" d="M 154.5,205.5 C 170.661,215.467 188.327,221.3 207.5,223C 239.215,226.965 270.215,223.965 300.5,214C 305.825,211.673 310.825,208.84 315.5,205.5C 316.665,214.482 316.832,223.482 316,232.5C 313.585,238.583 309.418,243.083 303.5,246C 281.068,255.934 257.568,260.1 233,258.5C 211.717,259.46 191.217,255.96 171.5,248C 163.706,245.201 158.206,240.035 155,232.5C 154.5,223.506 154.334,214.506 154.5,205.5 Z"/></g>
<g><path style="opacity:1" fill="#0f0100" d="M 298.5,227.5 C 299.5,227.5 300.5,227.5 301.5,227.5C 303.263,230.712 302.596,233.212 299.5,235C 294.822,237.752 289.822,239.085 284.5,239C 283.577,236.959 283.244,234.792 283.5,232.5C 288.647,231.007 293.647,229.34 298.5,227.5 Z"/></g>
<g><path style="opacity:1" fill="#c0c1c5" d="M 114.5,238.5 C 125.167,238.5 135.833,238.5 146.5,238.5C 146.756,240.792 146.423,242.959 145.5,245C 136.173,245.5 126.839,245.666 117.5,245.5C 117.5,259.833 117.5,274.167 117.5,288.5C 127.165,288.878 136.831,289.211 146.5,289.5C 146.721,295.936 143.554,298.27 137,296.5C 129.099,296.189 121.266,295.356 113.5,294C 112.667,293.167 111.833,292.333 111,291.5C 110.333,275.167 110.333,258.833 111,242.5C 111.69,240.65 112.856,239.316 114.5,238.5 Z"/></g>
<g><path style="opacity:1" fill="#c2c3c8" d="M 324.5,238.5 C 335.505,238.333 346.505,238.5 357.5,239C 358.667,240.167 359.833,241.333 361,242.5C 361.667,258.833 361.667,275.167 361,291.5C 360.626,292.416 360.126,293.25 359.5,294C 347.935,295.457 336.268,295.957 324.5,295.5C 324.5,293.5 324.5,291.5 324.5,289.5C 334.5,289.5 344.5,289.5 354.5,289.5C 354.5,274.833 354.5,260.167 354.5,245.5C 344.5,245.5 334.5,245.5 324.5,245.5C 324.5,243.167 324.5,240.833 324.5,238.5 Z"/></g>
<g><path style="opacity:1" fill="#d91314" d="M 154.5,250.5 C 166.061,258.106 178.728,263.272 192.5,266C 229.851,273.844 266.518,271.51 302.5,259C 307.59,257.042 312.09,254.208 316,250.5C 316.667,259.5 316.667,268.5 316,277.5C 314.325,283.841 310.492,288.341 304.5,291C 282.701,301.407 259.701,305.907 235.5,304.5C 212.924,305.627 191.257,301.793 170.5,293C 163.308,289.808 158.141,284.641 155,277.5C 154.5,268.506 154.334,259.506 154.5,250.5 Z"/></g>
<g><path style="opacity:1" fill="#100200" d="M 297.5,273.5 C 302.747,273.64 303.747,275.806 300.5,280C 295.423,283.705 289.923,284.871 284,283.5C 283.202,281.741 283.369,280.074 284.5,278.5C 289.011,277.001 293.344,275.335 297.5,273.5 Z"/></g>
<g><path style="opacity:1" fill="#d91314" d="M 154.5,297.5 C 179.073,310.559 205.406,316.892 233.5,316.5C 260.829,317.801 286.829,312.634 311.5,301C 312.685,299.647 314.019,298.48 315.5,297.5C 316.665,306.816 316.832,316.149 316,325.5C 312.199,332.839 306.365,338.006 298.5,341C 271.951,350.402 244.618,353.735 216.5,351C 200.472,350.159 185.139,346.493 170.5,340C 163.721,336.888 158.555,332.055 155,325.5C 154.5,316.173 154.334,306.839 154.5,297.5 Z"/></g>
<g><path style="opacity:1" fill="#0f0100" d="M 298.5,319.5 C 302.225,319.78 303.392,321.78 302,325.5C 296.764,329.267 290.93,331.1 284.5,331C 283.577,328.959 283.244,326.792 283.5,324.5C 288.733,323.281 293.733,321.615 298.5,319.5 Z"/></g>
</svg>
